<?xml version="1.0" standalone="no"?>
<!DOCTYPE svg PUBLIC "-//W3C//DTD SVG 20010904//EN"
 "http://www.w3.org/TR/2001/REC-SVG-20010904/DTD/svg10.dtd">
<svg version="1.0" xmlns="http://www.w3.org/2000/svg"
 width="1000.000000pt" height="1000.000000pt" viewBox="0 0 1000.000000 1000.000000"
 preserveAspectRatio="xMidYMid meet">
<metadata>
Created by potrace 1.14, written by Peter Selinger 2001-2017
</metadata>
<g transform="translate(0.000000,1000.000000) scale(0.100000,-0.100000)"
fill="#000000" stroke="none">
<path d="M8462 8730 c-320 -59 -584 -109 -586 -111 -1 -2 21 -454 50 -1004 29
-550 53 -1042 53 -1094 l1 -93 -32 6 c-18 3 -134 20 -258 37 -214 30 -231 31
-349 20 -460 -42 -816 -212 -1156 -555 -229 -230 -410 -497 -535 -791 -136
-317 -210 -652 -230 -1038 -31 -603 89 -1074 372 -1451 256 -342 596 -519 998
-520 138 -1 149 1 240 32 164 57 310 149 500 316 96 85 286 286 401 425 l53
65 17 -108 c39 -242 109 -468 230 -739 l41 -94 467 195 c256 107 467 195 469
196 1 2 -15 50 -37 107 -83 220 -160 516 -198 751 -24 157 -28 934 -9 1702
102 3945 100 3857 89 3855 -5 -1 -270 -49 -591 -109z m-992 -3265 c118 -15
358 -54 463 -77 l47 -10 0 -934 0 -933 -53 -39 c-59 -44 -228 -144 -285 -168
-160 -69 -267 -94 -422 -101 -166 -6 -249 9 -368 67 -239 118 -392 387 -448
787 -22 158 -22 479 0 625 31 201 83 353 162 475 49 74 155 179 227 221 61 37
178 80 247 92 78 13 301 11 430 -5z"/>
<path d="M866 7953 c3 -87 27 -961 53 -1943 l48 -1785 -52 -1045 c-29 -575
-51 -1046 -50 -1048 2 -2 106 -12 231 -22 690 -58 1244 -82 1545 -69 678 31
1240 246 1663 638 379 351 554 766 533 1265 -7 170 -26 283 -73 423 -114 351
-375 631 -763 822 -67 33 -155 73 -196 88 -41 15 -75 30 -75 34 0 3 24 19 53
34 263 143 473 350 592 584 196 389 227 952 71 1313 -65 151 -123 234 -251
364 -211 213 -449 345 -765 424 -304 76 -387 80 -1566 80 l-1003 0 5 -157z
m1849 -738 c142 -22 236 -49 345 -102 171 -82 292 -232 341 -420 42 -164 33
-411 -22 -591 -81 -264 -276 -449 -545 -517 -127 -33 -295 -45 -610 -45 l-264
0 0 88 c1 68 47 1589 49 1600 1 1 137 2 304 2 218 0 330 -4 402 -15z m285
-2539 c131 -24 288 -78 373 -128 162 -94 274 -253 323 -458 22 -89 30 -336 15
-440 -59 -402 -321 -648 -756 -710 -102 -14 -368 -12 -631 5 -338 22 -344 23
-344 50 0 13 -14 333 -31 712 -21 493 -28 731 -23 841 l6 153 487 -3 c411 -4
501 -7 581 -22z"/>
<path d="M5193 7656 c-113 -37 -212 -126 -270 -243 -37 -74 -38 -81 -37 -177
0 -86 4 -112 27 -171 70 -177 206 -347 549 -687 149 -148 274 -268 278 -268
15 0 559 548 620 625 94 119 170 239 204 324 26 67 30 88 31 177 0 96 -1 103
-38 178 -48 96 -124 173 -215 218 -58 29 -76 33 -147 33 -69 0 -89 -4 -145
-31 -72 -34 -153 -95 -247 -188 l-63 -60 -62 60 c-155 151 -263 214 -376 220
-40 2 -84 -2 -109 -10z"/>
</g>
</svg>
